<?xml version="1.0" standalone="no"?>
<!DOCTYPE svg PUBLIC "-//W3C//DTD SVG 20010904//EN"
 "http://www.w3.org/TR/2001/REC-SVG-20010904/DTD/svg10.dtd">
<svg version="1.0" xmlns="http://www.w3.org/2000/svg"
 width="640.000000pt" height="640.000000pt" viewBox="0 0 640.000000 640.000000"
 preserveAspectRatio="xMidYMid meet">
<metadata>
Created by potrace 1.11, written by Peter Selinger 2001-2013
</metadata>
<g transform="translate(0.000000,640.000000) scale(0.100000,-0.100000)"
fill="#000000" stroke="none">
<path d="M3008 6351 c-2 -7 -146 -20 -231 -21 -11 0 -15 -4 -11 -12 5 -8 2 -9
-9 -5 -10 4 -17 2 -17 -5 0 -7 -4 -7 -12 -1 -7 6 -22 9 -33 6 -11 -2 -33 -5
-50 -7 -16 -2 -43 -9 -59 -15 -22 -9 -32 -9 -43 1 -12 10 -18 9 -28 -6 -8 -10
-18 -15 -24 -11 -6 3 -11 1 -11 -6 0 -9 -3 -9 -14 0 -10 8 -16 9 -21 1 -3 -5
-17 -8 -31 -6 -19 4 -24 0 -24 -15 0 -15 -7 -19 -34 -19 -19 0 -37 -4 -40 -9
-3 -5 -15 -7 -26 -4 -11 3 -20 1 -20 -4 0 -6 -11 -8 -25 -5 -18 3 -25 0 -25
-11 0 -8 -6 -14 -12 -14 -34 3 -105 -17 -125 -36 -13 -11 -26 -17 -30 -14 -3
4 -11 3 -17 -2 -6 -5 -44 -18 -83 -29 -40 -11 -85 -30 -99 -41 -15 -12 -33
-21 -41 -21 -8 0 -21 -7 -30 -16 -9 -8 -22 -13 -29 -10 -8 3 -13 0 -11 -7 1
-7 -6 -11 -17 -9 -11 2 -15 -1 -11 -7 3 -7 -3 -11 -15 -11 -13 0 -24 -8 -27
-20 -3 -11 -9 -18 -13 -15 -4 3 -24 -6 -43 -19 -20 -14 -46 -26 -58 -28 -15
-2 -25 -12 -29 -27 -3 -14 -12 -27 -20 -29 -13 -5 -13 -3 0 13 14 17 14 17
-17 1 -18 -9 -33 -21 -33 -27 0 -6 -4 -7 -10 -4 -11 7 -75 -38 -103 -72 -10
-13 -21 -22 -25 -21 -11 3 -72 -36 -72 -46 0 -12 -50 -55 -72 -62 -10 -3 -18
-12 -18 -20 0 -8 -4 -13 -8 -12 -5 2 -23 -12 -41 -29 -18 -18 -36 -33 -41 -33
-13 0 -59 -48 -52 -54 3 -3 -1 -6 -8 -6 -7 0 -10 -3 -7 -6 4 -4 -8 -15 -26
-24 -17 -10 -32 -25 -32 -34 0 -10 -9 -22 -20 -28 -36 -19 -64 -50 -58 -64 3
-8 1 -14 -5 -14 -6 0 -26 -15 -45 -34 -20 -19 -38 -32 -41 -28 -3 3 -6 -1 -6
-10 0 -15 -21 -44 -59 -83 -11 -11 -21 -33 -23 -50 -2 -16 -7 -29 -13 -28 -20
2 -44 -17 -47 -39 -2 -12 -14 -28 -26 -34 -37 -18 -42 -27 -44 -72 -1 -32 -4
-39 -14 -31 -8 7 -14 6 -20 -2 -4 -8 -3 -9 4 -5 7 4 12 3 12 -2 0 -5 -9 -12
-20 -15 -11 -3 -27 -21 -35 -41 -9 -20 -20 -36 -25 -36 -5 0 -15 -20 -21 -44
-7 -29 -15 -43 -24 -40 -7 3 -15 -2 -18 -10 -4 -9 -1 -16 6 -17 7 0 3 -4 -8
-9 l-20 -9 20 -1 c19 -1 19 -2 -1 -10 -13 -5 -27 -25 -35 -47 -6 -21 -20 -45
-29 -53 -14 -13 -32 -72 -44 -145 -2 -11 -8 -19 -13 -18 -5 1 -10 -5 -10 -13
0 -8 5 -14 10 -14 6 0 1 -10 -11 -23 -12 -12 -23 -32 -25 -43 -1 -12 -11 -29
-21 -39 -10 -10 -15 -26 -13 -36 3 -11 0 -19 -6 -19 -6 0 -8 -3 -4 -6 3 -3 2
-17 -4 -31 -6 -16 -6 -22 1 -18 6 3 10 2 10 -4 0 -5 -6 -14 -14 -18 -8 -4 -16
-19 -18 -33 -2 -14 -8 -24 -14 -23 -6 1 -10 -11 -9 -28 1 -16 -3 -29 -8 -29
-5 0 -4 -7 3 -15 9 -11 10 -15 1 -15 -8 0 -11 -11 -9 -27 2 -19 -2 -27 -10
-25 -8 1 -11 -5 -6 -22 3 -13 0 -34 -7 -47 -6 -13 -13 -34 -16 -48 -12 -87
-16 -107 -23 -111 -11 -7 -18 -110 -9 -116 5 -3 2 -18 -6 -35 -23 -43 -31
-398 -15 -604 7 -88 13 -168 14 -177 0 -10 3 -18 7 -18 4 0 6 -11 4 -25 -1
-14 2 -25 6 -25 5 0 9 -16 9 -35 0 -19 4 -35 9 -35 5 0 7 -9 4 -20 -3 -11 0
-27 7 -35 6 -8 9 -19 5 -25 -3 -5 -3 -15 1 -22 7 -11 9 -22 16 -80 1 -10 6
-18 11 -18 5 0 4 -6 -2 -13 -6 -8 -7 -17 -3 -21 8 -8 9 -14 11 -51 0 -14 7
-25 14 -25 7 0 22 -39 36 -97 25 -102 44 -135 70 -126 12 5 13 3 5 -6 -9 -10
-8 -20 3 -42 8 -16 12 -38 8 -49 -3 -11 -2 -20 4 -20 8 0 24 -45 26 -75 1 -5
7 -21 15 -35 8 -14 13 -28 12 -32 -1 -5 2 -8 6 -8 13 0 52 -81 54 -112 2 -29
13 -37 21 -15 3 6 8 -3 12 -20 4 -18 12 -33 17 -33 5 0 6 -4 3 -10 -3 -5 6
-21 21 -35 15 -14 24 -25 20 -25 -4 0 -2 -9 4 -20 6 -11 16 -19 22 -17 7 1 13
-4 14 -10 1 -7 2 -17 3 -23 0 -5 9 -6 18 -3 15 5 16 4 7 -8 -16 -20 10 -77 40
-89 13 -5 27 -18 31 -29 3 -12 11 -21 16 -21 5 0 9 -6 9 -14 0 -7 9 -16 20
-19 13 -3 20 -14 20 -30 0 -15 9 -32 23 -42 12 -8 22 -19 23 -23 1 -12 39 -72
46 -72 3 0 21 -16 40 -36 18 -20 49 -54 69 -75 21 -22 40 -46 43 -54 3 -9 12
-12 22 -8 11 4 15 3 11 -4 -4 -6 4 -20 18 -31 13 -11 22 -21 20 -24 -3 -3 8
-17 25 -31 16 -15 30 -31 30 -35 0 -4 10 -8 21 -9 12 -1 28 -11 36 -23 8 -11
19 -18 24 -15 5 4 9 0 9 -8 0 -8 12 -23 28 -33 35 -23 52 -40 52 -53 0 -5 9
-12 20 -16 10 -3 30 -19 43 -35 14 -16 27 -27 30 -24 3 3 26 -11 52 -31 54
-40 105 -69 105 -58 0 4 14 -8 32 -26 17 -18 44 -35 60 -38 15 -3 28 -9 28
-13 0 -5 14 -13 31 -19 17 -6 28 -15 24 -21 -3 -5 1 -10 9 -10 9 0 16 -7 16
-16 0 -8 4 -13 8 -10 4 2 29 -6 56 -20 26 -13 56 -24 67 -24 10 0 19 -6 19
-14 0 -8 7 -17 16 -20 29 -11 145 -36 157 -33 6 1 11 -3 10 -9 -3 -18 35 -24
41 -7 5 11 8 12 20 1 7 -7 12 -18 9 -24 -5 -13 82 -38 98 -29 5 4 9 -1 9 -9 0
-15 23 -21 57 -17 6 1 14 -3 18 -9 3 -5 17 -7 31 -4 14 4 24 2 24 -5 0 -6 6
-11 14 -11 8 0 16 -6 19 -14 5 -12 24 -16 85 -18 12 0 22 -4 22 -10 0 -5 4 -6
10 -3 5 3 10 2 10 -4 0 -11 29 -17 135 -27 39 -3 84 -8 100 -11 17 -2 54 -7
83 -10 31 -3 56 -11 58 -18 5 -11 72 -14 340 -15 292 0 335 1 340 15 4 10 19
15 44 15 22 0 45 7 54 16 9 8 16 11 16 5 0 -10 104 -6 122 5 3 2 31 5 62 5 31
1 59 6 63 12 3 6 1 7 -5 3 -7 -4 -12 -2 -12 3 0 15 27 14 33 -1 4 -10 8 -10
16 2 5 8 7 18 5 22 -8 12 11 9 24 -4 8 -8 15 -8 26 1 8 7 19 10 24 7 5 -3 16
4 25 15 10 11 29 19 46 19 29 0 45 5 118 36 17 8 43 14 57 14 27 0 57 14 91
41 11 9 54 22 95 29 78 13 110 27 110 47 0 7 17 15 38 19 49 9 114 42 107 54
-4 6 1 10 10 10 8 0 18 7 21 15 4 8 13 15 21 15 21 0 115 58 131 81 7 10 19
16 26 13 8 -3 17 -1 21 5 3 6 26 20 50 31 25 11 58 33 73 48 39 37 85 72 94
72 4 0 8 6 8 13 0 10 70 67 83 67 3 0 20 15 38 33 19 18 51 46 72 62 22 17 39
40 40 53 1 13 6 21 14 18 7 -3 19 4 26 14 8 11 17 17 20 13 4 -3 7 3 7 15 0
12 10 26 23 33 29 15 77 69 77 86 0 7 6 13 13 13 16 0 60 44 52 52 -4 3 5 15
19 26 15 11 26 25 26 32 0 6 4 9 8 6 9 -5 24 19 36 58 4 10 9 16 12 13 8 -8
40 26 59 62 8 17 19 31 24 31 9 0 35 51 33 63 -1 4 2 7 8 7 5 0 6 7 3 17 -4
11 -3 14 5 9 8 -4 20 11 34 44 12 27 28 50 35 50 13 0 43 49 43 71 0 7 7 20
16 30 12 13 13 22 5 38 -7 13 -8 22 -1 26 5 3 10 1 10 -4 0 -21 16 -11 17 11
1 13 9 28 18 34 9 7 25 38 36 70 12 33 24 64 29 69 8 11 31 77 34 100 1 8 12
23 24 33 20 17 29 41 38 102 6 39 28 100 36 100 5 0 8 16 8 35 0 20 7 47 16
60 13 20 14 28 4 40 -9 10 -9 15 -1 15 6 0 10 3 10 8 -1 4 -1 9 1 12 1 3 4 16
6 30 2 13 9 27 14 30 6 3 8 21 6 38 -2 18 1 35 6 38 5 3 8 21 6 39 -1 19 1 37
5 41 4 4 7 27 7 51 0 24 4 42 8 39 5 -3 10 18 11 46 1 29 7 56 14 60 17 11 17
670 -1 676 -7 2 -12 21 -12 44 0 38 -20 74 -34 60 -4 -4 -3 5 3 20 7 18 7 46
0 85 -6 32 -11 72 -12 88 -2 17 -7 39 -13 50 -6 11 -9 26 -7 33 3 7 1 12 -4
11 -19 -3 -23 2 -13 21 9 16 8 22 -5 26 -11 5 -13 10 -5 19 8 10 8 15 -1 20
-8 6 -7 10 2 16 10 6 11 9 2 9 -8 0 -13 15 -13 40 0 22 -4 40 -10 40 -5 0 -10
7 -10 15 0 8 -4 15 -10 15 -5 0 -7 7 -4 14 8 20 -24 126 -37 126 -6 0 -8 4 -4
9 3 6 -3 14 -12 20 -10 5 -20 22 -21 37 -1 15 -5 30 -10 33 -4 3 -8 11 -9 16
-10 40 -46 131 -54 133 -5 2 -9 10 -9 18 0 33 -35 94 -55 95 -20 0 -20 0 0 9
19 8 19 9 1 9 -11 1 -16 4 -13 7 4 4 0 19 -7 33 -19 34 -30 64 -27 74 1 5 -6
11 -16 14 -10 2 -26 22 -37 44 -10 22 -27 49 -38 59 -11 10 -18 22 -15 27 3 5
-5 21 -18 36 -14 14 -34 44 -46 66 -11 22 -29 43 -40 46 -10 4 -19 12 -19 19
0 6 -22 36 -50 65 -27 29 -50 59 -50 65 0 7 -16 25 -35 40 -19 16 -35 32 -35
37 0 15 -56 67 -80 74 -15 5 -19 12 -15 26 5 14 -2 23 -29 36 -20 9 -36 24
-36 33 0 10 -19 30 -42 46 -23 16 -58 46 -78 67 -20 20 -44 37 -52 37 -9 0
-18 7 -22 15 -3 8 -14 15 -25 15 -12 0 -23 11 -30 30 -5 17 -17 30 -25 30 -8
0 -23 10 -33 23 -24 28 -61 49 -73 42 -6 -4 -10 -1 -10 4 0 6 6 11 13 11 6 0
-1 7 -17 15 -15 8 -34 15 -41 15 -7 0 -16 7 -19 15 -3 9 -11 15 -18 14 -24 -3
-41 1 -35 8 7 7 -34 39 -45 36 -4 -2 -19 8 -32 22 -14 14 -34 25 -45 25 -29 0
-52 11 -45 22 3 5 -3 12 -14 15 -11 3 -23 12 -26 20 -3 8 -10 11 -16 8 -5 -3
-10 -1 -10 4 0 6 -7 11 -15 11 -8 0 -15 -6 -15 -12 0 -7 -7 -2 -16 10 -8 12
-20 22 -26 22 -5 0 -23 11 -38 24 -17 13 -60 31 -104 41 -42 10 -81 24 -87 31
-6 8 -22 14 -36 14 -14 0 -21 4 -18 10 4 6 -6 10 -22 10 -38 0 -115 24 -107
33 4 4 -4 8 -17 8 -94 6 -164 21 -164 37 0 6 -3 11 -6 10 -3 -2 -12 2 -20 9
-8 6 -24 11 -34 9 -11 -2 -22 1 -25 5 -6 8 -54 16 -153 24 -26 3 -52 7 -58 11
-5 3 -16 0 -24 -6 -11 -10 -15 -10 -15 -1 0 7 -4 10 -9 7 -5 -4 -11 -1 -13 4
-2 6 -55 13 -121 17 -64 3 -117 10 -117 15 0 11 -367 11 -372 -1z m585 -72
c77 -10 97 -16 97 -29 0 -13 21 -19 117 -28 64 -7 122 -16 127 -21 6 -5 64
-21 129 -36 64 -16 117 -32 117 -36 0 -6 76 -26 168 -45 12 -2 22 -10 22 -17
0 -12 25 -21 128 -47 25 -7 42 -17 42 -25 0 -8 6 -15 13 -15 8 0 24 -9 37 -20
13 -11 27 -20 32 -20 6 0 22 -9 37 -19 15 -11 40 -23 57 -27 16 -4 31 -10 34
-13 9 -11 111 -71 120 -71 5 0 20 -11 34 -25 14 -14 28 -25 31 -25 3 0 16 -11
29 -25 13 -14 31 -25 40 -25 9 0 25 -13 34 -29 9 -17 24 -33 32 -36 38 -15 60
-31 71 -52 7 -13 21 -23 31 -23 10 0 21 -7 25 -15 3 -9 17 -22 32 -30 33 -17
151 -129 151 -144 0 -6 13 -17 28 -25 15 -8 33 -26 39 -39 7 -14 21 -28 32
-32 12 -3 21 -12 21 -18 0 -7 14 -25 30 -40 17 -16 30 -35 30 -43 0 -7 11 -21
24 -29 13 -9 27 -26 30 -39 3 -13 22 -35 41 -50 19 -15 35 -33 35 -40 0 -8 16
-26 35 -40 19 -15 35 -36 35 -47 0 -11 7 -22 15 -25 8 -4 15 -11 15 -17 0 -6
20 -40 44 -76 24 -37 46 -79 50 -94 4 -16 16 -31 29 -36 16 -6 27 -24 37 -60
7 -28 17 -51 22 -51 4 0 8 -7 8 -15 0 -8 4 -15 9 -15 4 0 14 -21 21 -47 7 -27
21 -66 31 -89 11 -22 19 -47 19 -55 0 -8 9 -27 20 -44 11 -16 27 -62 37 -102
9 -40 20 -73 25 -73 4 0 8 -6 8 -14 0 -8 4 -16 8 -18 11 -4 46 -146 63 -253 7
-44 16 -82 20 -85 3 -3 14 -63 25 -135 14 -105 18 -191 17 -445 0 -173 -3
-331 -7 -350 -3 -19 -12 -73 -18 -120 -6 -47 -14 -87 -18 -90 -3 -3 -11 -40
-18 -83 -17 -110 -53 -257 -63 -257 -5 0 -9 -9 -9 -20 0 -11 -4 -20 -8 -20 -4
0 -16 -33 -26 -73 -10 -39 -27 -83 -37 -96 -11 -13 -19 -30 -19 -38 0 -7 -7
-30 -16 -51 -10 -20 -18 -41 -19 -47 -15 -60 -27 -95 -35 -95 -6 0 -10 -7 -10
-15 0 -8 -4 -15 -8 -15 -5 0 -15 -23 -22 -51 -10 -36 -21 -54 -36 -59 -12 -5
-25 -19 -29 -32 -9 -33 -39 -92 -48 -96 -4 -2 -17 -23 -29 -45 -11 -23 -27
-46 -34 -50 -8 -4 -14 -17 -14 -27 0 -10 -16 -31 -35 -46 -19 -14 -33 -30 -30
-34 2 -4 -13 -23 -35 -43 -22 -19 -40 -43 -40 -51 0 -9 -11 -23 -25 -32 -14
-9 -25 -22 -25 -29 0 -10 -40 -61 -80 -100 -6 -5 -16 -16 -23 -23 -11 -12 -42
-44 -67 -69 -5 -4 -40 -41 -78 -80 -38 -40 -74 -73 -79 -73 -9 0 -48 -32 -99
-80 -12 -11 -26 -20 -32 -20 -7 0 -17 -9 -24 -20 -7 -11 -17 -20 -21 -20 -5 0
-20 -14 -34 -30 -13 -17 -31 -30 -39 -30 -8 0 -29 -15 -47 -34 -18 -18 -64
-50 -102 -72 -39 -21 -76 -44 -83 -51 -7 -7 -24 -13 -38 -13 -13 0 -24 -3 -24
-7 0 -5 -19 -17 -43 -28 -23 -11 -46 -25 -50 -32 -4 -7 -15 -13 -22 -13 -8 0
-15 -6 -15 -13 0 -13 -31 -26 -117 -47 -24 -6 -43 -16 -43 -23 0 -14 -46 -30
-137 -47 -35 -7 -63 -16 -63 -21 0 -4 -16 -11 -35 -15 -19 -3 -35 -10 -35 -16
0 -5 -4 -7 -8 -4 -10 6 -145 -24 -152 -33 -8 -11 -108 -31 -157 -31 -35 0 -46
-4 -50 -18 -14 -54 -726 -80 -1020 -37 -114 16 -133 22 -133 37 0 14 -8 18
-37 19 -42 1 -55 2 -128 13 -27 4 -54 11 -60 16 -5 4 -57 20 -114 34 -58 14
-107 30 -110 35 -5 8 -101 34 -173 48 -16 3 -28 11 -28 19 0 7 -19 18 -42 24
-98 26 -118 34 -118 47 0 7 -7 13 -15 13 -7 0 -18 6 -22 13 -4 8 -35 27 -68
42 -33 16 -71 37 -84 47 -13 10 -51 31 -85 47 -56 27 -90 53 -173 131 -17 16
-38 30 -46 30 -8 0 -18 7 -21 15 -3 9 -19 21 -35 26 -17 6 -33 19 -36 30 -4
10 -12 19 -20 19 -7 0 -23 13 -35 30 -12 16 -27 30 -33 30 -7 0 -20 8 -29 18
-8 9 -34 34 -57 55 -22 20 -41 39 -41 40 0 2 -39 43 -86 92 -48 50 -97 107
-110 127 -13 21 -29 38 -34 38 -6 0 -10 6 -10 13 0 13 -19 40 -53 77 -8 8 -18
25 -21 38 -4 12 -21 29 -37 37 -16 9 -29 23 -29 33 -1 21 -23 52 -39 52 -6 0
-11 7 -11 15 0 8 -4 15 -8 15 -5 0 -15 16 -22 35 -8 20 -20 41 -27 47 -7 6
-13 19 -13 29 0 10 -13 32 -30 47 -16 16 -30 35 -30 42 0 32 -25 80 -41 80
-13 0 -22 18 -35 76 -10 43 -23 82 -29 88 -15 16 -32 55 -46 108 -8 27 -17 48
-20 48 -9 0 -33 108 -30 133 1 9 -1 17 -6 17 -19 0 -69 167 -60 201 3 10 1 22
-4 25 -5 3 -9 16 -9 30 0 13 -6 24 -13 24 -18 0 -35 121 -43 296 -4 71 -10
131 -15 132 -12 5 -12 399 0 404 4 2 11 62 15 133 8 173 25 295 42 295 7 0 15
21 19 53 9 67 36 180 45 187 4 3 18 46 30 95 13 50 27 92 31 95 4 3 12 25 19
50 14 53 31 90 47 108 6 6 19 46 28 87 13 56 21 75 34 75 14 0 51 67 51 93 0
4 11 19 25 33 14 14 25 33 25 43 0 10 6 24 14 30 8 6 20 26 27 44 14 35 32 57
47 57 4 0 19 20 31 45 12 25 31 50 41 55 10 5 22 20 26 32 3 13 22 38 40 56
19 18 34 40 34 49 0 8 11 24 25 35 14 11 25 24 25 30 0 22 358 378 380 378 3
0 16 14 30 30 14 17 30 30 36 30 6 0 17 7 24 15 7 8 21 15 31 15 12 0 23 10
29 25 5 14 14 25 19 25 5 0 16 6 23 13 58 55 148 117 170 117 10 0 71 42 76
52 2 4 19 10 38 14 19 3 34 10 34 14 0 4 18 15 40 25 22 10 40 22 40 26 0 5
11 11 25 15 14 3 25 12 25 20 0 7 12 16 28 19 15 3 48 12 73 20 26 8 54 15 63
15 9 0 16 7 16 15 0 8 12 17 28 21 91 21 148 37 158 45 13 11 197 59 225 59
11 0 19 4 19 9 0 4 27 11 60 15 33 3 87 9 120 12 48 5 60 10 60 24 0 17 14 19
275 44 83 8 534 -3 628 -15z"/>
<path d="M1778 5648 l-3 -173 -92 -3 -93 -3 0 -159 0 -160 -110 0 -110 0 0
-1310 0 -1310 110 0 110 0 2 -162 3 -163 93 -3 92 -3 0 -159 0 -160 410 0 410
0 0 160 0 160 100 0 100 0 0 165 0 165 105 0 105 0 0 170 0 170 -310 0 -310 0
0 -170 0 -170 -205 0 -205 0 0 170 0 170 -100 0 -100 0 0 985 0 985 100 0 100
0 0 155 0 155 205 0 205 0 0 -155 0 -155 310 0 310 0 0 155 0 155 -105 0 -105
0 0 160 0 159 -97 3 -98 3 -3 173 -2 172 -410 0 -410 0 -2 -172z"/>
<path d="M3890 3115 l0 -1655 165 0 165 0 0 825 0 825 75 0 75 0 0 -270 0
-270 160 0 160 0 0 270 0 270 80 0 80 0 0 -825 0 -825 170 0 170 0 0 1655 0
1655 -170 0 -170 0 0 -285 0 -285 -80 0 -80 0 0 -265 0 -265 -160 0 -160 0 0
265 0 265 -75 0 -75 0 0 285 0 285 -165 0 -165 0 0 -1655z"/>
<path d="M3198 2773 l-3 -1478 -97 -3 -98 -3 -2 -162 -3 -162 -195 -2 c-140
-1 -197 2 -202 10 -4 7 -8 81 -8 165 l0 152 -310 0 -310 0 0 -165 0 -165 100
0 100 0 0 -170 0 -170 105 0 105 0 0 -155 0 -155 410 0 410 0 0 155 0 155 100
0 100 0 0 170 0 170 110 0 110 0 0 1645 0 1645 -210 0 -210 0 -2 -1477z"/>
</g>
</svg>
