<?xml version="1.0" encoding="UTF-8" standalone="no"?>
<svg
  xmlns:dc="http://purl.org/dc/elements/1.1/"
  xmlns:cc="http://creativecommons.org/ns#"
  xmlns:rdf="http://www.w3.org/1999/02/22-rdf-syntax-ns#"
  xmlns="http://www.w3.org/2000/svg"
  xmlns:sodipodi="http://sodipodi.sourceforge.net/DTD/sodipodi-0.dtd"
  xmlns:inkscape="http://www.inkscape.org/namespaces/inkscape"
  inkscape:version="1.0 (4035a4fb49, 2020-05-01)"
  sodipodi:docname="CJM Logo.svg"
  id="svg74"
  preserveAspectRatio="xMidYMid meet"
  viewBox="0 0 512 512"
  height="512pt"
  width="512pt"
  version="1.0">
  <title
     id="title84">CJM Logo</title>
  <defs
     id="defs78" />
  <sodipodi:namedview
     inkscape:current-layer="svg74"
     inkscape:window-maximized="1"
     inkscape:window-y="-8"
     inkscape:window-x="-8"
     inkscape:cy="286.20994"
     inkscape:cx="621.30552"
     inkscape:zoom="0.8762876"
     inkscape:pagecheckerboard="true"
     showgrid="false"
     id="namedview76"
     inkscape:window-height="1052"
     inkscape:window-width="1920"
     inkscape:pageshadow="2"
     inkscape:pageopacity="0"
     guidetolerance="10"
     gridtolerance="10"
     objecttolerance="10"
     borderopacity="1"
     bordercolor="#666666"
     pagecolor="#ffffff" />
  <metadata
     id="metadata62">
Created by potrace 1.16, written by Peter Selinger 2001-2019
<rdf:RDF>
  <cc:Work
     rdf:about="">
    <dc:format>image/svg+xml</dc:format>
    <dc:type
       rdf:resource="http://purl.org/dc/dcmitype/StillImage" />
    <dc:title>CJM Logo</dc:title>
    <dc:date>2020-05-06</dc:date>
    <dc:creator>
      <cc:Agent>
        <dc:title>Christopher J Maxwell</dc:title>
      </cc:Agent>
    </dc:creator>
    <dc:rights>
      <cc:Agent>
        <dc:title>All Rights Reserved</dc:title>
      </cc:Agent>
    </dc:rights>
    <dc:language>English</dc:language>
    <dc:subject>
      <rdf:Bag>
        <rdf:li>Logo</rdf:li>
        <rdf:li>CJ</rdf:li>
        <rdf:li>CJM</rdf:li>
        <rdf:li></rdf:li>
      </rdf:Bag>
    </dc:subject>
    <dc:description>Logo for Christopher J Maxwell</dc:description>
  </cc:Work>
</rdf:RDF>
</metadata>
  <g
     id="g72"
     stroke="none"
     fill="#000000"
     transform="matrix(0.1,0,0,-0.1,0,512)">
    <path
       id="path64"
       d="m 2406,5092 c -3,-5 -49,-12 -103,-16 -54,-4 -111,-8 -128,-10 -111,-12 -161,-20 -170,-26 -5,-5 -31,-11 -57,-15 -27,-4 -48,-11 -48,-15 0,-10 -90,-35 -112,-32 -10,2 -18,-2 -18,-7 0,-6 -10,-11 -22,-11 -13,0 -50,-12 -83,-26 -33,-14 -89,-35 -125,-47 -36,-12 -67,-24 -70,-27 -3,-3 -32,-18 -65,-34 -33,-16 -70,-39 -82,-51 -12,-12 -41,-28 -63,-35 -23,-7 -44,-18 -48,-24 -9,-14 -88,-66 -100,-66 -4,0 -25,-16 -46,-35 -21,-19 -46,-37 -56,-40 -11,-3 -21,-14 -25,-24 -3,-9 -24,-29 -48,-44 -23,-15 -48,-36 -55,-47 -7,-11 -18,-20 -25,-20 -14,-1 -67,-45 -67,-57 0,-5 -11,-17 -25,-27 -14,-10 -25,-25 -25,-32 0,-7 -13,-20 -30,-29 -16,-9 -30,-22 -30,-29 0,-7 -16,-27 -35,-43 -19,-17 -35,-34 -35,-39 0,-5 -16,-25 -35,-44 -19,-19 -35,-41 -35,-50 0,-9 -11,-23 -25,-30 -14,-7 -25,-22 -25,-32 0,-10 -5,-18 -11,-18 -14,0 -49,-39 -49,-54 0,-6 -20,-40 -45,-75 -25,-36 -45,-75 -45,-88 0,-14 -4,-21 -10,-18 -6,3 -25,-26 -43,-65 -18,-39 -35,-68 -39,-65 -3,3 -8,-11 -11,-32 -4,-21 -23,-76 -43,-123 -20,-47 -42,-109 -48,-137 -5,-29 -14,-53 -18,-53 -4,0 -8,-9 -8,-20 0,-11 -4,-20 -9,-20 -5,0 -11,-17 -14,-37 -3,-21 -10,-56 -15,-78 C 65,3076 41,2947 35,2895 31,2868 25,2811 20,2770 7,2663 9,2445 24,2305 c 13,-130 75,-448 88,-453 4,-2 8,-12 8,-22 0,-10 3,-20 8,-22 4,-2 15,-34 25,-73 10,-38 23,-72 29,-76 6,-4 13,-16 14,-26 1,-10 11,-44 23,-75 12,-32 21,-64 21,-72 0,-7 7,-16 15,-20 8,-3 15,-15 15,-26 0,-11 4,-20 8,-20 5,0 13,-17 18,-37 5,-21 15,-38 22,-38 7,0 23,-22 36,-50 13,-27 33,-61 45,-75 13,-14 25,-37 28,-53 3,-15 15,-36 27,-45 11,-10 26,-27 32,-37 6,-11 20,-24 32,-30 12,-5 22,-17 22,-25 1,-16 46,-76 98,-126 17,-18 32,-36 32,-40 0,-4 24,-31 53,-59 28,-28 68,-70 87,-93 19,-23 42,-42 51,-42 9,0 24,-11 33,-25 9,-14 21,-25 27,-25 6,0 38,-27 71,-60 33,-33 64,-58 69,-54 5,3 9,1 9,-3 0,-5 15,-17 33,-28 17,-10 36,-24 40,-32 4,-7 19,-13 31,-13 13,0 26,-7 30,-15 3,-9 27,-25 52,-36 26,-11 58,-31 70,-44 13,-14 28,-25 34,-25 6,0 29,-9 50,-20 22,-11 40,-17 40,-13 0,4 6,0 13,-8 6,-9 50,-28 97,-43 47,-16 87,-31 90,-35 5,-7 115,-43 140,-46 44,-5 79,-18 84,-31 3,-9 20,-14 45,-14 22,0 41,-4 43,-10 3,-10 100,-26 228,-37 45,-3 78,-11 83,-19 11,-19 553,-19 564,0 5,8 37,16 83,19 136,11 233,26 241,38 4,6 19,12 35,11 15,0 35,9 43,19 9,10 32,20 51,22 19,3 62,13 95,23 33,10 66,18 73,18 7,1 16,6 20,12 4,5 34,18 67,28 78,23 204,84 230,111 11,12 40,29 64,39 25,9 52,26 62,37 9,10 26,19 38,19 12,0 21,6 21,15 0,9 12,18 30,22 17,3 36,13 43,22 7,9 29,29 50,45 21,15 52,41 68,57 16,16 36,29 43,29 7,0 19,11 26,25 7,14 18,25 24,25 11,0 136,129 136,141 0,4 14,16 30,26 17,9 30,21 30,27 0,5 11,21 25,35 66,69 105,117 105,128 0,7 5,13 11,13 11,0 48,40 49,52 0,5 15,29 33,55 19,27 41,65 51,86 9,20 21,37 27,37 6,0 19,20 29,44 11,24 27,49 35,56 8,7 15,21 15,31 0,9 6,24 14,31 7,8 17,30 21,49 4,19 11,36 14,39 10,7 41,87 41,106 0,9 9,23 20,32 12,10 24,37 30,67 5,28 20,84 34,125 14,41 26,91 26,111 0,21 4,39 10,41 9,3 20,68 36,213 4,33 12,63 18,67 15,10 15,546 0,556 -6,4 -14,30 -17,57 -19,154 -28,209 -36,219 -4,6 -11,33 -14,59 -4,26 -18,81 -32,122 -14,42 -25,84 -25,95 0,28 -21,70 -36,70 -6,0 -14,15 -17,33 -7,44 -30,107 -39,107 -5,0 -8,6 -8,14 0,8 -11,37 -25,64 -14,28 -25,54 -25,59 0,6 -9,18 -19,27 -11,10 -23,31 -26,47 -4,16 -12,32 -19,36 -7,5 -25,30 -40,56 -39,71 -59,101 -73,110 -7,4 -13,14 -13,21 0,8 -27,41 -60,75 -33,34 -60,66 -60,71 0,5 -16,25 -35,44 -19,20 -35,40 -35,45 0,5 -9,13 -20,16 -11,4 -27,19 -35,35 -8,16 -23,31 -32,35 -10,3 -27,20 -38,38 -11,17 -30,36 -42,43 -13,6 -34,22 -48,35 -47,46 -65,59 -80,59 -8,0 -15,6 -15,14 0,8 -22,31 -50,51 -27,20 -50,41 -50,46 0,5 -7,9 -14,9 -16,0 -109,59 -114,72 -2,4 -8,8 -14,8 -21,0 -108,45 -108,56 0,10 -19,23 -40,29 -13,3 -86,40 -90,45 -5,7 -48,23 -205,75 -44,15 -87,30 -95,33 -8,3 -23,6 -32,7 -30,4 -113,28 -118,35 -8,11 -108,42 -143,45 -207,17 -327,30 -327,37 0,11 -307,10 -314,0 z m 467,-73 c 51,-8 77,-17 77,-26 0,-8 14,-13 38,-14 20,-1 46,-3 57,-4 38,-4 220,-47 237,-56 10,-5 27,-9 38,-9 11,0 20,-4 20,-8 0,-4 34,-16 75,-27 41,-10 75,-22 75,-27 0,-4 9,-8 19,-8 11,0 22,-4 25,-9 4,-5 24,-12 47,-16 22,-4 43,-13 46,-21 3,-8 10,-14 16,-14 6,0 18,-6 26,-14 9,-8 57,-35 106,-61 137,-71 138,-72 180,-110 22,-19 45,-35 52,-35 6,0 15,-9 18,-20 3,-11 12,-20 19,-20 7,0 29,-16 50,-35 21,-19 41,-35 43,-35 13,0 152,-126 161,-146 6,-12 20,-25 31,-29 12,-3 21,-10 21,-14 0,-4 20,-29 45,-55 25,-27 45,-54 45,-61 0,-8 9,-16 19,-20 10,-3 22,-17 25,-30 3,-13 20,-33 36,-45 17,-12 30,-27 30,-35 0,-7 11,-20 24,-28 13,-9 36,-40 51,-69 15,-29 36,-63 46,-76 10,-13 23,-38 29,-57 6,-18 19,-35 30,-38 11,-3 20,-13 20,-24 0,-10 11,-38 25,-62 14,-23 25,-48 25,-55 0,-6 8,-28 19,-49 10,-20 22,-52 25,-71 4,-19 13,-39 20,-45 7,-6 17,-30 20,-54 4,-23 19,-67 33,-97 14,-29 30,-82 36,-117 6,-35 14,-63 17,-63 3,0 7,-21 8,-47 1,-26 5,-49 10,-52 12,-9 33,-208 39,-381 5,-150 -19,-507 -36,-520 -4,-3 -17,-59 -30,-125 -13,-66 -32,-135 -42,-154 -10,-19 -24,-60 -31,-90 -6,-31 -17,-59 -24,-64 -7,-4 -16,-23 -20,-42 -3,-20 -15,-52 -25,-72 -11,-21 -19,-43 -19,-49 0,-7 -11,-32 -25,-55 -14,-24 -25,-52 -25,-62 0,-11 -9,-21 -20,-24 -10,-3 -22,-15 -25,-27 -12,-38 -36,-86 -44,-86 -5,0 -14,-12 -20,-27 -22,-53 -42,-84 -67,-99 -13,-9 -24,-22 -24,-30 0,-7 -11,-21 -25,-30 -13,-9 -27,-25 -30,-35 -7,-21 -17,-34 -90,-113 -25,-26 -45,-52 -45,-57 0,-5 -11,-15 -25,-21 -14,-6 -25,-15 -25,-21 0,-13 -97,-105 -153,-146 -26,-18 -47,-37 -47,-42 0,-5 -6,-9 -14,-9 -7,0 -32,-18 -54,-40 -22,-22 -44,-40 -50,-40 -6,0 -24,-13 -39,-29 -28,-29 -55,-46 -192,-118 -40,-21 -84,-48 -98,-61 -14,-13 -47,-29 -75,-36 -27,-7 -53,-17 -56,-23 -4,-5 -41,-18 -82,-29 -41,-10 -77,-21 -80,-25 -10,-14 -265,-79 -308,-79 -17,0 -37,-6 -44,-13 -49,-49 -576,-71 -803,-33 -60,10 -113,23 -117,29 -4,7 -13,12 -20,13 -35,1 -118,17 -158,29 -25,7 -63,16 -84,20 -22,4 -58,15 -80,25 -48,21 -142,50 -162,50 -8,0 -14,4 -14,10 0,5 -26,17 -57,26 -32,9 -62,23 -66,30 -4,8 -15,14 -22,14 -8,0 -15,3 -15,8 0,4 -26,21 -58,37 -31,17 -59,33 -62,36 -3,3 -30,17 -60,32 -51,24 -78,44 -152,112 -15,14 -32,25 -38,25 -6,0 -13,7 -16,15 -4,8 -12,15 -20,15 -8,0 -19,9 -26,20 -7,11 -17,20 -22,20 -18,0 -292,274 -312,313 -8,15 -18,27 -22,27 -4,0 -16,16 -26,35 -11,19 -23,35 -28,35 -5,0 -14,13 -19,30 -6,16 -19,32 -30,35 -10,4 -19,13 -19,21 0,8 -10,24 -22,36 -22,22 -56,78 -82,135 -8,18 -19,33 -23,33 -5,0 -15,20 -22,45 -7,25 -19,45 -25,45 -14,0 -36,41 -36,66 0,8 -11,39 -24,67 -13,29 -26,63 -30,77 -4,14 -13,39 -21,55 -7,17 -18,52 -24,80 -7,27 -16,52 -20,55 -5,3 -16,49 -26,103 -10,53 -21,97 -25,97 -12,0 -20,51 -35,225 -18,202 -18,348 0,550 16,175 23,225 35,225 7,0 18,46 37,155 3,17 9,32 13,35 4,3 15,37 25,75 9,39 20,75 25,80 4,6 10,22 14,38 4,15 17,51 30,80 13,28 29,71 35,95 7,23 17,42 24,42 14,0 37,45 37,72 0,10 5,18 11,18 5,0 17,15 25,33 32,66 50,96 76,122 16,15 28,33 28,39 0,6 14,24 30,39 17,16 30,33 30,38 0,6 11,21 25,35 14,14 25,30 25,37 0,7 9,18 20,25 11,7 20,17 20,22 0,18 177,201 255,265 33,26 66,56 73,67 7,10 19,18 26,18 8,0 16,7 20,15 3,8 13,15 21,15 9,0 31,15 49,33 56,55 94,84 128,97 18,7 40,19 48,25 8,7 46,29 84,49 38,20 83,46 100,59 17,12 58,31 91,42 33,10 62,22 65,25 7,7 67,27 107,35 18,4 35,11 38,16 4,5 19,9 36,9 16,0 29,5 29,10 0,6 10,10 23,10 12,0 42,6 67,14 25,7 86,19 135,26 50,7 95,18 100,25 6,7 51,18 100,24 50,6 104,13 120,15 58,8 421,-3 498,-15 z" />
    <path
       id="path66"
       d="m 1418,4523 -3,-138 -72,-3 -73,-3 v -124 -124 l -87,-3 -88,-3 -3,-1052 -2,-1053 h 90 90 v -130 -129 l 73,-3 72,-3 3,-128 3,-127 332,2 332,3 3,128 3,127 h 79 80 v 130 130 h 80 80 v 140 140 h -250 -250 v -135 -135 h -160 -160 v 135 135 h -80 -80 v 785 785 h 80 80 v 125 125 h 160 159 l 3,-127 c 2,-71 6,-127 11,-125 4,1 115,2 247,2 h 240 v 130 130 h -80 -80 v 125 125 h -80 -80 v 140 140 h -335 -334 z" />
    <path
       id="path68"
       d="M 3110,2490 V 1159 l 133,3 132,3 3,658 2,657 h 55 55 l 2,-212 3,-213 110,-3 c 172,-4 155,-28 155,218 v 210 h 55 55 v -660 -661 l 143,3 142,3 v 1325 1325 l -142,3 -143,3 v -231 -230 h -60 -60 v -210 -210 h -125 -125 v 210 210 h -60 -60 v 230 230 h -135 -135 z" />
    <path
       id="path70"
       d="M 2550,2220 V 1040 h -75 -75 V 910 780 h -160 -160 v 130 130 h -255 -256 l 3,-137 3,-138 78,-3 77,-3 V 625 490 h 85 84 l 3,-122 3,-123 327,-3 328,-2 5,23 c 4,13 5,70 3,125 l -3,102 h 78 77 v 135 134 l 88,3 87,3 3,1318 2,1317 h -175 -175 z" />
  </g>
  <path
     transform="scale(0.74999998)"
     id="path80"
     d="m 321.56344,670.43839 c -20.96554,-0.69765 -36.33821,-3.01186 -41.9606,-6.31677 -1.33145,-0.78263 -4.59953,-1.66026 -7.26241,-1.95028 -8.03748,-0.87537 -31.51768,-6.8501 -41.48007,-10.55494 -5.14625,-1.9138 -11.5192,-3.95507 -14.16212,-4.53615 -2.64291,-0.58107 -5.41239,-1.66359 -6.15438,-2.40558 -0.742,-0.742 -4.25683,-2.31745 -7.81074,-3.50102 -3.55392,-1.18356 -7.10455,-2.86231 -7.89031,-3.73056 -0.78575,-0.86824 -1.98442,-1.57863 -2.6637,-1.57863 -0.67929,0 -1.98471,-0.69078 -2.90094,-1.53508 -1.89825,-1.74922 -14.43228,-9.05808 -22.24271,-12.97022 -6.34924,-3.18024 -11.59034,-6.83931 -18.55949,-12.95727 -2.8848,-2.53245 -6.06168,-5.02746 -7.05975,-5.54446 -0.99808,-0.517 -2.63212,-1.68378 -3.63121,-2.59283 -0.99909,-0.90906 -5.26618,-4.48468 -9.48241,-7.94583 -8.73492,-7.17059 -37.376702,-35.91532 -40.632926,-40.77897 -2.675557,-3.99636 -7.175711,-9.82042 -9.686248,-12.53589 -1.040242,-1.12515 -2.539045,-3.41065 -3.330674,-5.07888 -0.79163,-1.66824 -2.479723,-3.57117 -3.751319,-4.22874 -1.271596,-0.65757 -2.311992,-1.68099 -2.311992,-2.27429 0,-0.59329 -1.967372,-3.74584 -4.371938,-7.00566 -2.404566,-3.25982 -5.906991,-8.84734 -7.783166,-12.41672 -1.876175,-3.56937 -4.058417,-7.21601 -4.849425,-8.10364 -0.791009,-0.88763 -2.185152,-3.61103 -3.098096,-6.05201 -0.912944,-2.44098 -2.747355,-5.46045 -4.076468,-6.70995 -1.329114,-1.2495 -2.818993,-3.79134 -3.310843,-5.64854 -0.49185,-1.8572 -2.669664,-7.9367 -4.839587,-13.51 -2.169923,-5.5733 -5.259652,-14.2882 -6.866065,-19.36643 -1.606413,-5.07824 -3.653443,-11.15589 -4.548955,-13.50589 -0.895512,-2.35 -2.662132,-9.15001 -3.925822,-15.11113 -1.263691,-5.96113 -2.846378,-11.67592 -3.517083,-12.69955 -1.39634,-2.13108 -2.205672,-7.37051 -4.205635,-27.22629 -3.3702941,-33.46053 -0.682386,-95.47681 4.575352,-105.56401 0.90789,-1.74182 2.540456,-7.79913 3.627925,-13.46068 1.08747,-5.66155 2.315349,-10.70115 2.728621,-11.19911 0.413273,-0.49796 2.024409,-5.08075 3.580305,-10.18398 3.57988,-11.74174 6.047244,-18.78342 9.612927,-27.43461 1.554842,-3.77242 3.432508,-8.72634 4.172589,-11.00871 0.740082,-2.28238 2.5695,-5.40997 4.065374,-6.95023 2.368404,-2.43867 4.451874,-7.10185 4.465994,-9.9957 0.0025,-0.50729 0.501922,-1.11322 1.109882,-1.34651 0.607959,-0.2333 3.009393,-3.95611 5.336518,-8.27292 2.327126,-4.3168 5.59386,-9.33925 7.25941,-11.16097 1.66555,-1.82174 3.592022,-4.4016 4.281048,-5.73305 0.689025,-1.33144 2.825578,-4.31361 4.747895,-6.62704 4.938091,-5.94279 9.129882,-11.59169 10.351506,-13.94979 0.574802,-1.10953 1.547334,-2.31363 2.161182,-2.67578 0.613849,-0.36214 1.965825,-1.99618 3.004392,-3.6312 6.49038,-10.21784 43.227982,-45.008264 53.743212,-50.894698 1.55335,-0.869567 5.91079,-4.347162 9.68321,-7.727991 3.77242,-3.380829 8.95678,-7.197341 11.52078,-8.48114 4.83956,-2.423165 9.38418,-5.001539 27.41738,-15.555134 5.87857,-3.440331 12.50392,-6.848085 14.72299,-7.572787 2.21907,-0.724702 6.39496,-2.38334 9.27975,-3.685863 2.88479,-1.302522 8.3316,-3.211721 12.10402,-4.242662 3.77242,-1.030941 7.94831,-2.455959 9.27975,-3.166705 1.33144,-0.710746 3.55648,-1.294504 4.94454,-1.297238 1.38805,-0.0027 2.97577,-0.549652 3.52827,-1.215373 0.5525,-0.665721 1.65726,-1.210402 2.45502,-1.210402 0.79776,0 5.20152,-0.898171 9.78614,-1.995937 4.58462,-1.097765 11.96688,-2.563266 16.40502,-3.256668 4.43814,-0.693401 11.15587,-2.303982 14.92829,-3.579067 11.86973,-4.011991 24.04846,-5.308555 48.41608,-5.154439 22.34227,0.141307 43.27812,1.280914 49.82111,2.711928 2.11202,0.461918 4.89857,1.608732 6.19235,2.548477 1.72353,1.25191 4.24645,1.883407 9.4385,2.362501 7.643,0.705252 26.26493,4.716167 33.57815,7.232283 2.48059,0.85345 5.19234,1.551726 6.0261,1.551726 0.83376,0 2.32018,0.522699 3.30314,1.161554 0.98297,0.638854 5.47218,2.226375 9.97602,3.527824 4.50385,1.301448 9.03288,2.957472 10.0645,3.680053 1.03163,0.722582 2.53391,1.313784 3.3384,1.313784 0.80449,0 2.26696,0.503813 3.24992,1.119585 0.98297,0.615771 3.65581,1.550724 5.93965,2.077675 2.41089,0.556264 4.92351,1.778863 5.99094,2.915089 1.01118,1.076348 2.16368,1.956997 2.56112,1.956997 0.39744,0 2.24053,1.034751 4.09574,2.299446 1.85523,1.264695 9.4806,5.531362 16.94527,9.481481 8.00115,4.234009 15.61931,8.921085 18.5595,11.418739 2.74304,2.330186 6.0013,4.69047 7.24058,5.245074 1.23926,0.554605 2.95184,2.188514 3.80572,3.63091 0.85388,1.442396 2.04407,2.622537 2.64488,2.622537 0.6008,0 2.51943,1.206383 4.26361,2.68085 1.74419,1.474468 5.7131,4.629792 8.8198,7.011833 8.16679,6.261835 17.8139,15.145308 20.2241,18.623248 1.14628,1.65408 3.14706,3.44769 4.44617,3.9858 1.29912,0.53811 2.36204,1.24118 2.36204,1.56236 0,0.32119 2.39663,3.27289 5.32586,6.55931 2.92922,3.28644 5.82802,7.12905 6.44177,8.53915 0.61375,1.41009 1.8544,2.7982 2.75701,3.08467 0.90262,0.28648 2.35549,1.92115 3.22861,3.63261 0.87312,1.71146 3.31809,4.93241 5.43327,7.15766 9.32657,9.8119 17.27091,21.27355 22.813,32.9133 1.30169,2.73385 3.40363,5.70899 4.67099,6.61144 1.32717,0.94502 2.70448,2.9765 3.24802,4.79069 0.51905,1.73243 2.21675,5.59217 3.77264,8.57721 1.55591,2.98503 2.82892,5.8954 2.82892,6.46749 0,0.57208 1.04581,3.35988 2.32401,6.1951 1.2782,2.83523 2.58472,6.42588 2.90338,7.97923 0.31866,1.55334 1.49496,4.41543 2.614,6.36019 1.11904,1.94475 2.53725,5.6905 3.15158,8.32389 0.61433,2.63339 2.37801,7.83435 3.9193,11.5577 3.19761,7.72462 7.53847,24.03018 8.52188,32.01076 0.36587,2.96908 1.01542,6.05561 1.44344,6.85894 2.15833,4.05086 4.9542,36.23063 4.9644,57.13911 0.0117,23.94107 -2.08202,52.17493 -4.50825,60.79422 -0.66709,2.36985 -2.61033,10.57269 -4.31833,18.22853 -1.708,7.65585 -4.18418,16.61372 -5.50262,19.90639 -1.31844,3.29266 -3.16018,8.7678 -4.09273,12.16698 -0.93255,3.39918 -2.56992,7.4688 -3.63861,9.0436 -1.06869,1.5748 -2.19796,4.22196 -2.50949,5.88259 -0.31154,1.66062 -1.62517,5.35432 -2.91919,8.20821 -1.29402,2.85391 -2.35277,5.65699 -2.35277,6.22907 0,0.57209 -1.27301,3.48246 -2.82892,6.46749 -1.55589,2.98503 -3.26547,6.88441 -3.79903,8.6653 -0.62628,2.09032 -1.76844,3.69104 -3.22251,4.51625 -1.60095,0.90858 -2.84934,2.83512 -4.31643,6.66118 -1.13523,2.96059 -2.90428,6.22868 -3.93125,7.26242 -1.02695,1.03373 -3.15392,4.44151 -4.72659,7.57284 -1.57267,3.13134 -4.61521,7.57333 -6.76123,9.87111 -6.99134,7.48578 -10.90507,12.16613 -12.25752,14.65849 -0.73014,1.34554 -4.58915,6.12281 -8.57557,10.61616 -3.98644,4.49335 -7.88465,9.2165 -8.66269,10.49589 -0.77804,1.27939 -1.81059,2.32617 -2.29455,2.32617 -0.48395,0 -4.20336,3.48713 -8.26536,7.74917 -6.95119,7.29353 -17.29284,16.23691 -25.09727,21.70394 -1.90069,1.33144 -5.53877,4.32719 -8.08462,6.65721 -2.54585,2.33003 -4.99526,4.23641 -5.44314,4.23641 -0.44788,0 -2.82403,1.79122 -5.28034,3.9805 -2.46017,2.19271 -9.69191,6.81363 -16.10137,10.28842 -6.39944,3.46935 -15.0961,8.55676 -19.3259,11.30535 -4.22981,2.74859 -10.11473,5.80105 -13.0776,6.78322 -2.96287,0.98218 -6.70229,2.46777 -8.30982,3.30131 -1.60753,0.83355 -6.50966,2.57194 -10.89361,3.8631 -4.38397,1.29117 -10.51268,3.30291 -13.61938,4.47053 -6.74837,2.5363 -28.74893,8.05257 -35.46057,8.89113 -2.62521,0.328 -6.61415,1.43773 -8.86431,2.46608 -10.18686,4.65548 -42.74974,7.06393 -79.13611,5.85313 z m 21.02081,-23.72519 c 0.30806,-2.46565 0.40596,-9.90962 0.21754,-16.54216 l -0.34258,-12.05914 h 10.33068 10.33068 v -18.04278 -18.04276 l 11.49852,-0.58368 c 6.32419,-0.32103 11.54107,-0.64433 11.59307,-0.71847 0.052,-0.0741 0.29375,-79.20427 0.53724,-175.84478 l 0.44272,-175.71001 H 363.45579 339.71946 V 386.52167 543.87392 H 329.63278 319.5461 v 17.34909 17.34909 h -20.9803 -20.9803 v -17.34909 -17.34909 h -34.41582 -34.41582 l 0.44474,18.21069 c 0.24461,10.01588 0.57471,18.34066 0.73356,18.4995 0.15885,0.15886 4.73378,0.54883 10.16651,0.8666 l 9.87769,0.57776 v 18.04171 18.04172 h 11.18213 11.18213 l 0.51842,4.95998 c 0.28513,2.72798 0.51842,9.98491 0.51842,16.1265 v 11.16653 l 23.60284,0.22659 c 12.98156,0.12462 32.92706,0.31167 44.32334,0.41565 l 20.7205,0.18907 z M 450.0568,527.38749 c 0.10491,-0.0925 0.4371,-39.45075 0.73817,-87.46267 l 0.54743,-87.2944 h 6.63527 6.63527 l 0.59396,28.13187 0.59395,28.13187 14.63529,0.56779 c 9.38555,0.36412 15.41062,0.27301 16.79677,-0.254 4.11358,-1.56398 4.2576,-2.53551 4.52928,-30.55389 l 0.25234,-26.02364 h 6.80833 6.80835 v 88.08288 88.08288 l 13.91962,-0.52801 c 7.65579,-0.29041 16.37068,-0.52912 19.36643,-0.53048 l 5.44681,-0.002 V 350.61308 173.49094 h -9.55653 c -5.25609,0 -13.97098,-0.23736 -19.36643,-0.52748 l -9.8099,-0.52747 v 30.78752 30.78752 h -8.06935 -8.06935 v 28.24271 28.24271 h -16.13869 -16.13869 v -28.24271 -28.24271 h -8.06935 -8.06934 V 203.34752 172.684 h -18.5595 -18.55949 v 178.02334 178.02334 l 17.95429,-0.58746 c 9.87486,-0.32311 18.04014,-0.66318 18.14506,-0.75573 z m -204.31972,-44.8406 h 32.44976 l 0.59008,-16.94563 0.59008,-16.94563 h 10.40634 10.40633 v -17.34909 -17.34909 h 10.89362 10.89361 V 394.59102 375.22459 H 288.07565 254.1844 v 18.15602 18.15603 H 233.2041 212.2238 V 393.38061 375.22459 H 201.73365 191.2435 V 271.13002 167.03546 h 10.49015 10.49015 V 150.4933 133.95114 h 20.8574 20.8574 l 0.56534,14.72656 c 0.31093,8.0996 0.76872,15.54358 1.01731,16.54216 l 0.45198,1.8156 h 32.99683 32.99684 V 149.2829 131.53034 H 311.07329 300.17967 V 114.98818 98.44602 H 289.68952 279.19937 V 79.886525 61.327029 H 234.01103 188.8227 V 74.52308 c 0,7.257828 -0.2294,15.390789 -0.50977,18.073246 l -0.50977,4.877193 -9.57691,0.575425 -9.57692,0.575417 v 16.355439 16.35543 l -11.70055,0.58491 -11.70055,0.58491 v 140.7262 140.7262 h 11.6845 11.6845 l 0.21778,17.14736 0.21779,17.14736 9.3691,0.22637 9.3691,0.22637 0.51585,4.93534 c 0.28371,2.71444 0.51585,10.56714 0.51585,17.45044 v 12.51511 l 12.23231,-0.52946 c 6.72778,-0.2912 26.83471,-0.52945 44.68207,-0.52945 z"
     style="fill:#00ff00;stroke-width:0.806935" />
</svg>
